<?xml version="1.0" encoding="UTF-8"?>
<svg xmlns="http://www.w3.org/2000/svg" version="1.1" xmlns:xlink="http://www.w3.org/1999/xlink" viewBox="0 0 244 37">
  <!-- Generator: Adobe Illustrator 29.2.0, SVG Export Plug-In . SVG Version: 2.1.0 Build 108)  -->
  <defs>
    <style>
      .st0, .st1, .st2, .st3, .st4 {
        fill: #e8d651;
      }

      .st0, .st5 {
        letter-spacing: .09em;
      }

      .st6 {
        letter-spacing: .1em;
      }

      .st6, .st7, .st8, .st9, .st5 {
        fill: #009cde;
      }

      .st7 {
        letter-spacing: .07em;
      }

      .st10 {
        fill: #9b9a9a;
      }

      .st11 {
        fill: #808285;
      }

      .st12 {
        font-family: UtopiaStd-Subh, 'Utopia Std';
        font-size: 32px;
      }

      .st2, .st9 {
        letter-spacing: .1em;
      }

      .st3 {
        letter-spacing: .1em;
      }

      .st13 {
        fill: #00b1eb;
      }

      .st14 {
        fill: #58595b;
      }

      .st15 {
        display: none;
      }

      .st4 {
        letter-spacing: .08em;
      }
    </style>
  </defs>
  <g id="Ebene_1" class="st15">
    <g>
      <path class="st13" d="M9.1,7.6c3.4,0,6.8.7,6.8,4.8,0,2.5-1.7,4.1-4.7,4.7v.1c3,.4,5.7,1.5,5.7,5.2,0,1.9-.7,3.3-1.8,4.3-1.5,1.2-3.7,1.9-6.5,1.9H0v-.8c2.6-.2,2.6-.3,2.6-1.9v-15.6c0-1.7-.1-1.7-2.6-1.9v-.8h9.1ZM5.7,16.9h2.2c3.2,0,4.7-1.2,4.7-4.3,0-3.3-2.3-4.1-4.7-4.1-2.1,0-2.2.2-2.2,1.5v6.9ZM5.7,25.3c0,1.9.2,2.3,2.6,2.3,2.6,0,5.1-1.4,5.1-5,0-3.3-1.7-4.9-5.4-4.9h-2.3v7.6Z"/>
      <path class="st13" d="M23.8,10.3c0-1.7-.1-1.8-2.6-1.9v-.8h15.2v5h-.8c-.4-3.1-1.3-4.2-4.8-4.2h-2.8c-1,0-1.1.1-1.1,1.1v7.6h3.8c2.6,0,3-.9,3.3-2.9h.9v6.9h-.9c-.3-2.1-.7-3-3.3-3h-3.8v6.9c0,2.1.3,2.6,3.8,2.6,3.8,0,5.3-.9,6-4.7h.8l-.5,5.6h-15.8v-.8c2.5-.2,2.6-.3,2.6-1.9,0,0,0-15.5,0-15.5Z"/>
      <path class="st13" d="M54.4,12.8c-.4-3.1-2.1-4.8-4.7-4.8s-3.8,1.7-3.8,3.9c0,2.6,2.2,3.7,4.3,4.5,3.7,1.4,6.3,2.5,6.3,6.5,0,3.1-2,6.2-7.3,6.2-2.3,0-4.4-.5-5.9-1.6l-.3-5.1h.9c.8,3.4,2.6,5.8,5.5,5.8,2.7,0,4.4-1.4,4.4-4.2,0-2.6-2.5-3.8-4.7-4.7-3.2-1.2-5.7-2.6-5.7-6.2,0-4.1,3-6,6.8-6,2.1,0,4.2.6,5.2,1.2v4.5s-1,0-1,0Z"/>
      <path class="st13" d="M70.7,25.8c0,1.3.2,1.7,1.8,1.8l1.5.1v.8h-9.7v-.8l1.6-.1c1.6-.1,1.7-.5,1.7-1.8V8.5h-1.9c-3.5,0-4.1.9-4.5,4.3h-.9v-5.2h17.7v5.2h-.9c-.4-3.4-1-4.3-4.5-4.3h-1.8v17.3h-.1Z"/>
      <path class="st14" d="M81.8,28.5v-.8c1.6-.1,2.5-.4,2.7-1.7.1-1,.2-2.4.2-4v-11.7c0-1.7-.1-1.8-2.7-1.9v-.8h6c2.2,5.1,5,10.8,7.3,15.9h.1c1.5-3.3,5.3-11.8,7-15.9h5.9v.8c-2.6.2-2.7.2-2.7,1.9v15.5c0,1.7.1,1.7,2.7,1.9v.8h-8.5v-.8c2.6-.2,2.7-.3,2.7-1.9v-15.8h-.1c-2,4.6-6,13.9-7.9,18.3h-.7c-1.9-4.4-5.7-13-7.9-18.1h-.1v11.8c0,1.6.1,3,.2,4,.2,1.3,1.1,1.6,3,1.7v.8h-7.2Z"/>
      <path class="st14" d="M119,25.8c0,1.6.1,1.7,2.6,1.9v.8h-8.4v-.8c2.6-.2,2.6-.3,2.6-1.9v-15.5c0-1.6-.1-1.8-2.6-1.9v-.8h8.4v.8c-2.6.2-2.6.3-2.6,1.9v15.5Z"/>
      <path class="st14" d="M143.3,28.5c-4.1-6-8.4-12.2-12.7-18.3h-.1v12c0,1.6.1,2.7.2,3.7.2,1.3,1,1.6,3,1.8v.8h-7.2v-.8c1.6-.1,2.5-.4,2.7-1.7.1-1,.2-2.1.2-3.8v-11.9c0-1.7-.1-1.7-2.7-1.9v-.8h5.6c3.6,5.2,8,11.3,11.9,16.8l.1.1v-10.6c0-1.6-.1-2.7-.2-3.7-.2-1.3-.9-1.6-3.1-1.8v-.8h7.2v.8c-1.6.1-2.4.4-2.6,1.7-.1,1-.2,2.1-.2,3.8v14.6h-2.1Z"/>
      <path class="st14" d="M162.5,7.6c3.6,0,6.3.6,8.2,2.4s2.6,4.5,2.6,7.6c0,7.6-4.7,10.9-11.6,10.9h-9.3v-.8c2.5-.2,2.6-.3,2.6-1.9v-15.5c0-1.7-.2-1.8-2.6-1.9v-.8h10.1ZM158.1,25c0,2.3.4,2.6,3,2.6,5,0,8.7-2.1,8.7-9.9,0-5.1-2-9.3-8.4-9.3-3.2,0-3.3.2-3.3,1.7v14.9Z"/>
      <path class="st14" d="M189.6,12.8c-.4-3.1-2.1-4.8-4.7-4.8s-3.8,1.7-3.8,3.9c0,2.6,2.2,3.7,4.3,4.5,3.7,1.4,6.3,2.5,6.3,6.5,0,3.1-2,6.2-7.3,6.2-2.3,0-4.4-.5-5.9-1.6l-.3-5.1h.9c.8,3.4,2.6,5.8,5.5,5.8,2.7,0,4.4-1.4,4.4-4.2,0-2.6-2.5-3.8-4.7-4.7-3.2-1.2-5.7-2.6-5.7-6.2,0-4.1,3-6,6.8-6,2.1,0,4.2.6,5.2,1.2v4.5s-1,0-1,0Z"/>
    </g>
    <g>
      <path class="st13" d="M217.1,18.8c-.8-.7-1.5-1.5-2.1-2.5-2.1-4-.6-9,3.4-11.2,4-2.1,9-.6,11.2,3.4.5,1,.8,2.1.9,3.1l3.3-1.7c-.1-1.4-.5-2.8-1.2-4.1-2.8-5.3-9.4-7.4-14.8-4.5-5.3,2.8-7.4,9.4-4.5,14.8.7,1.3,1.6,2.4,2.7,3.3l1.1-.6Z"/>
      <path class="st11" d="M239,7.2c.8.7,1.5,1.5,2.1,2.5,2.1,4,.6,9-3.4,11.2-4,2.1-9,.6-11.2-3.4-.5-1-.8-2.1-.9-3.1l-3.3,1.7c.1,1.4.5,2.8,1.2,4.1,2.8,5.3,9.4,7.4,14.8,4.5,5.3-2.8,7.4-9.4,4.5-14.8-.7-1.3-1.6-2.4-2.7-3.3l-1.1.6Z"/>
      <path class="st14" d="M226.2,27.2c-.2,1-.6,2.1-1.2,3-2.4,3.9-7.5,5-11.4,2.6-3.9-2.4-5-7.5-2.6-11.4.3-.5.7-.9,1.1-1.4l-2-3c-1.1.8-2.1,1.8-2.9,3.1-3.2,5.1-1.7,11.8,3.4,15.1,5.1,3.2,11.8,1.7,15.1-3.4.8-1.3,1.3-2.6,1.5-4l-1-.6Z"/>
    </g>
  </g>
  <g id="Ebene_2">
    <path class="st8" d="M217.11,18.82c-.82-.68-1.53-1.52-2.06-2.52-2.14-4.04-.6-9.05,3.44-11.19,4.04-2.14,9.05-.6,11.19,3.44.53,1,.83,2.06.93,3.12l3.28-1.74c-.13-1.4-.53-2.8-1.23-4.12-2.83-5.33-9.44-7.36-14.77-4.54-5.33,2.83-7.36,9.44-4.54,14.77.7,1.32,1.63,2.44,2.72,3.33l1.04-.55Z"/>
    <path class="st10" d="M239.05,7.2c.82.68,1.53,1.52,2.06,2.52,2.14,4.04.6,9.05-3.44,11.19-4.04,2.14-9.05.6-11.19-3.44-.53-1-.83-2.06-.93-3.12l-3.28,1.74c.13,1.4.53,2.8,1.23,4.12,2.82,5.33,9.44,7.37,14.77,4.55,5.33-2.82,7.37-9.44,4.55-14.77-.7-1.32-1.63-2.44-2.72-3.33l-1.04.55Z"/>
    <path class="st1" d="M226.23,27.26c-.18,1.05-.56,2.08-1.16,3.04-2.44,3.87-7.55,5.03-11.42,2.59-3.87-2.44-5.03-7.55-2.59-11.42.31-.5.67-.95,1.07-1.35l-2-2.96c-1.13.8-2.14,1.84-2.92,3.09-3.22,5.11-1.69,11.85,3.42,15.07,5.11,3.22,11.85,1.69,15.07-3.42.8-1.26,1.3-2.63,1.53-4.01l-.99-.63Z"/>
  </g>
  <g id="Ebene_3">
    <text class="st12" transform="translate(.77 28.83)"><tspan class="st9" x="0" y="0">B</tspan><tspan class="st6" x="22.4" y="0">E</tspan><tspan class="st5" x="44.03" y="0">S</tspan><tspan class="st7" x="63.14" y="0">T</tspan><tspan class="st2" x="84.51" y="0">MI</tspan><tspan class="st4" x="129.12" y="0">N</tspan><tspan class="st0" x="154.56" y="0">D</tspan><tspan class="st3" x="180.64" y="0">S</tspan></text>
  </g>
</svg>